<svg xmlns="http://www.w3.org/2000/svg" xmlns:xlink="http://www.w3.org/1999/xlink" width="1366" zoomAndPan="magnify" viewBox="0 0 1024.5 485.249994" height="768" preserveAspectRatio="xMidYMid meet" version="1.0"><defs><g/></defs><g fill="#ffd890" fill-opacity="1"><g transform="translate(215.434112, 371.051495)"><g><path d="M 527 -89.125 C 514.59375 -90.550781 502.082031 -91.265625 489.46875 -91.265625 C 483.945312 -91.460938 478.320312 -91.625 472.59375 -91.75 C 420.53125 -93.894531 368.335938 -94.445312 316.015625 -93.40625 C 313.410156 -93.40625 311.265625 -93.40625 309.578125 -93.40625 C 306.710938 -93.601562 304.628906 -93.585938 303.328125 -93.359375 C 302.035156 -93.128906 301 -92.410156 300.21875 -91.203125 C 299.4375 -90.003906 298.523438 -88.039062 297.484375 -85.3125 C 296.765625 -83.75 295.921875 -81.800781 294.953125 -79.46875 C 286.242188 -60.488281 278.25 -41.179688 270.96875 -21.546875 C 266.21875 -8.867188 262.539062 4.128906 259.9375 17.453125 C 258.96875 21.609375 258.628906 25.648438 258.921875 29.578125 C 259.210938 33.515625 260.984375 37.046875 264.234375 40.171875 C 264.691406 40.492188 264.851562 40.898438 264.71875 41.390625 C 264.59375 41.878906 264.300781 42.332031 263.84375 42.75 C 263.382812 43.175781 262.894531 43.453125 262.375 43.578125 C 254.644531 44.753906 250 41.992188 248.4375 35.296875 C 247.53125 31.523438 247.367188 27.65625 247.953125 23.6875 C 247.953125 23.363281 247.953125 23.140625 247.953125 23.015625 C 248.535156 16.179688 249.753906 9.398438 251.609375 2.671875 C 253.460938 -4.046875 255.523438 -10.785156 257.796875 -17.546875 C 265.140625 -37.828125 273.234375 -57.847656 282.078125 -77.609375 C 282.535156 -78.453125 282.894531 -79.296875 283.15625 -80.140625 C 283.601562 -81.117188 284.085938 -82.128906 284.609375 -83.171875 C 285.328125 -84.597656 285.976562 -86.023438 286.5625 -87.453125 C 287.144531 -88.890625 287.375 -90.390625 287.25 -91.953125 C 286.53125 -92.535156 285.8125 -92.890625 285.09375 -93.015625 C 284.382812 -93.148438 283.671875 -93.148438 282.953125 -93.015625 C 282.828125 -93.015625 282.664062 -93.015625 282.46875 -93.015625 C 276.351562 -93.015625 270.210938 -92.953125 264.046875 -92.828125 C 262.347656 -92.828125 260.554688 -92.828125 258.671875 -92.828125 C 256.398438 -92.691406 254.484375 -91.972656 252.921875 -90.671875 C 251.359375 -89.378906 249.863281 -87.789062 248.4375 -85.90625 C 246.550781 -83.5 244.664062 -81.09375 242.78125 -78.6875 C 234.789062 -68.476562 226.734375 -58.367188 218.609375 -48.359375 C 206.578125 -33.796875 194.007812 -19.753906 180.90625 -6.234375 C 167.8125 7.285156 153.921875 19.957031 139.234375 31.78125 C 120.773438 47 101.175781 60.390625 80.4375 71.953125 C 48.71875 88.984375 15.46875 97.046875 -19.3125 96.140625 C -52.070312 95.421875 -81.613281 86.582031 -107.9375 69.625 C -115.34375 64.875 -121.90625 59.148438 -127.625 52.453125 C -131.46875 47.710938 -134.507812 42.59375 -136.75 37.09375 C -138.988281 31.601562 -140.109375 25.640625 -140.109375 19.203125 C -139.785156 11.472656 -138.015625 4.3125 -134.796875 -2.28125 C -131.578125 -8.882812 -127.109375 -14.882812 -121.390625 -20.28125 C -113.523438 -27.882812 -104.878906 -34.320312 -95.453125 -39.59375 C -86.285156 -44.914062 -76.84375 -49.578125 -67.125 -53.578125 C -57.40625 -57.578125 -47.609375 -61.132812 -37.734375 -64.25 C -21.742188 -69.382812 -5.59375 -73.707031 10.71875 -77.21875 C 27.039062 -80.726562 43.425781 -83.71875 59.875 -86.1875 C 98.875 -91.582031 137.972656 -95.160156 177.171875 -96.921875 C 197.179688 -98.148438 217.132812 -98.765625 237.03125 -98.765625 C 242.488281 -98.640625 246.710938 -100.945312 249.703125 -105.6875 C 254.972656 -113.101562 260.269531 -120.546875 265.59375 -128.015625 C 273.851562 -139.460938 281.976562 -151.097656 289.96875 -162.921875 C 327.15625 -218.441406 362.78125 -274.863281 396.84375 -332.1875 C 399.695312 -337.0625 402.488281 -342.003906 405.21875 -347.015625 C 406.519531 -349.546875 407.890625 -352.113281 409.328125 -354.71875 C 411.015625 -358.03125 413.707031 -359.882812 417.40625 -360.28125 C 419.425781 -360.28125 420.90625 -359.707031 421.84375 -358.5625 C 422.789062 -357.425781 422.90625 -355.914062 422.1875 -354.03125 C 421.476562 -352.476562 420.664062 -350.984375 419.75 -349.546875 C 414.226562 -339.671875 409.320312 -329.660156 405.03125 -319.515625 C 403.40625 -315.941406 401.8125 -312.429688 400.25 -308.984375 C 385.238281 -276.421875 370.160156 -243.820312 355.015625 -211.1875 C 343.441406 -186.03125 331.769531 -160.8125 320 -135.53125 C 316.625 -128.050781 313.28125 -120.609375 309.96875 -113.203125 C 309.25 -111.640625 308.53125 -110.144531 307.8125 -108.71875 C 307.6875 -108.394531 307.554688 -108.035156 307.421875 -107.640625 C 306.972656 -106.597656 306.601562 -105.570312 306.3125 -104.5625 C 306.019531 -103.5625 306.097656 -102.570312 306.546875 -101.59375 C 307.523438 -100.882812 308.664062 -100.492188 309.96875 -100.421875 C 311.269531 -100.359375 312.472656 -100.328125 313.578125 -100.328125 C 314.484375 -100.460938 315.296875 -100.53125 316.015625 -100.53125 C 321.410156 -100.394531 326.835938 -100.394531 332.296875 -100.53125 C 339.703125 -100.53125 347.144531 -100.460938 354.625 -100.328125 C 395.1875 -99.617188 435.78125 -98.742188 476.40625 -97.703125 C 489.726562 -97.441406 502.957031 -96.890625 516.09375 -96.046875 C 517.257812 -95.910156 518.492188 -95.84375 519.796875 -95.84375 C 520.503906 -95.84375 521.28125 -95.84375 522.125 -95.84375 C 523.820312 -95.84375 525.460938 -95.695312 527.046875 -95.40625 C 528.640625 -95.113281 530.15625 -94.546875 531.59375 -93.703125 C 531.851562 -93.503906 532.046875 -93.191406 532.171875 -92.765625 C 532.304688 -92.347656 532.304688 -92.007812 532.171875 -91.75 C 532.171875 -91.289062 531.992188 -90.882812 531.640625 -90.53125 C 531.285156 -90.175781 530.976562 -89.929688 530.71875 -89.796875 C 529.539062 -89.347656 528.300781 -89.125 527 -89.125 Z M 236.34375 -88.046875 C 236.800781 -88.953125 236.847656 -89.765625 236.484375 -90.484375 C 236.128906 -91.203125 235.53125 -91.5625 234.6875 -91.5625 C 233.382812 -91.6875 232.019531 -91.6875 230.59375 -91.5625 C 229.882812 -91.5625 229.171875 -91.5625 228.453125 -91.5625 C 179.367188 -90.96875 130.257812 -87.585938 81.125 -81.421875 C 62.332031 -79.140625 43.640625 -76.144531 25.046875 -72.4375 C 6.460938 -68.738281 -11.957031 -64.09375 -30.21875 -58.5 C -39.976562 -55.507812 -49.601562 -52.082031 -59.09375 -48.21875 C -68.582031 -44.351562 -77.84375 -39.753906 -86.875 -34.421875 C -96.300781 -29.148438 -104.878906 -22.710938 -112.609375 -15.109375 C -121.648438 -5.816406 -126.738281 4.078125 -127.875 14.578125 C -129.007812 25.078125 -126.195312 35.203125 -119.4375 44.953125 C -114.4375 51.773438 -108.457031 57.625 -101.5 62.5 C -76.144531 80.507812 -45.953125 89.675781 -10.921875 90 C -1.953125 90 8.347656 88.828125 19.984375 86.484375 C 31.554688 84.078125 42.738281 80.550781 53.53125 75.90625 C 64.320312 71.257812 74.785156 65.785156 84.921875 59.484375 C 109.953125 44.078125 133.128906 26.132812 154.453125 5.65625 C 169.203125 -8.1875 183.109375 -22.757812 196.171875 -38.0625 C 209.242188 -53.375 221.921875 -68.960938 234.203125 -84.828125 C 234.921875 -85.992188 235.632812 -87.066406 236.34375 -88.046875 Z M 296.015625 -108.234375 C 305.441406 -129.679688 315.160156 -151.066406 325.171875 -172.390625 C 325.628906 -173.554688 327.140625 -176.914062 329.703125 -182.46875 C 332.273438 -188.03125 335.234375 -194.5 338.578125 -201.875 C 341.929688 -209.257812 345.003906 -216.234375 347.796875 -222.796875 C 350.585938 -229.359375 352.550781 -234.28125 353.6875 -237.5625 C 354.832031 -240.84375 354.492188 -241.15625 352.671875 -238.5 C 352.210938 -237.90625 351.851562 -237.316406 351.59375 -236.734375 C 350.039062 -234.460938 348.546875 -232.1875 347.109375 -229.90625 C 335.210938 -211.445312 323.25 -193.019531 311.21875 -174.625 C 299.195312 -156.226562 286.753906 -138.09375 273.890625 -120.21875 C 272.648438 -118.53125 271.378906 -116.742188 270.078125 -114.859375 C 267.609375 -111.484375 265.171875 -108.070312 262.765625 -104.625 C 261.796875 -103.1875 261.519531 -102 261.9375 -101.0625 C 262.363281 -100.125 263.359375 -99.65625 264.921875 -99.65625 C 267.515625 -99.65625 270.082031 -99.71875 272.625 -99.84375 C 276.65625 -100.164062 280.648438 -100.328125 284.609375 -100.328125 C 287.671875 -100.203125 290.046875 -100.851562 291.734375 -102.28125 C 293.421875 -103.707031 294.847656 -105.691406 296.015625 -108.234375 Z M 296.015625 -108.234375 "/></g></g><g transform="translate(524.518948, 371.051495)"><g><path d="M 46.796875 -59.859375 C 46.210938 -55.378906 44.097656 -52.457031 40.453125 -51.09375 C 36.816406 -49.726562 35.632812 -51.515625 36.90625 -56.453125 C 38.175781 -61.390625 35.945312 -62.640625 30.21875 -60.203125 C 24.5 -57.765625 19.789062 -54.695312 16.09375 -51 C 10.363281 -45.144531 5.289062 -38.835938 0.875 -32.078125 C 0.414062 -31.492188 0.0625 -31.003906 -0.1875 -30.609375 C -1.488281 -28.722656 -2.789062 -26.9375 -4.09375 -25.25 C -4.9375 -24.082031 -5.925781 -23.351562 -7.0625 -23.0625 C -8.207031 -22.769531 -9.363281 -22.71875 -10.53125 -22.90625 C -11.632812 -23.039062 -12.476562 -23.460938 -13.0625 -24.171875 C -13.644531 -24.890625 -13.710938 -25.738281 -13.265625 -26.71875 C -12.546875 -28.46875 -11.695312 -30.253906 -10.71875 -32.078125 C -4.875 -42.929688 1.070312 -53.820312 7.125 -64.75 C 7.25 -64.875 7.3125 -65 7.3125 -65.125 C 8.15625 -66.820312 9.160156 -68.382812 10.328125 -69.8125 C 11.628906 -71.238281 13.125 -71.820312 14.8125 -71.5625 C 16.507812 -71.300781 17.648438 -70.296875 18.234375 -68.546875 C 18.953125 -66.265625 19.566406 -64.976562 20.078125 -64.6875 C 20.597656 -64.394531 21.769531 -64.609375 23.59375 -65.328125 C 27.5 -66.753906 31.300781 -67.757812 35 -68.34375 C 38.707031 -68.9375 41.742188 -68.789062 44.109375 -67.90625 C 46.484375 -67.03125 47.378906 -64.347656 46.796875 -59.859375 Z M 46.796875 -59.859375 "/></g></g><g transform="translate(573.270501, 371.051495)"><g><path d="M 55.578125 -37.4375 C 51.804688 -33.738281 47.414062 -30.570312 42.40625 -27.9375 C 37.40625 -25.300781 33.210938 -23.578125 29.828125 -22.765625 C 26.453125 -21.953125 22.976562 -21.484375 19.40625 -21.359375 C 13.6875 -21.097656 8.421875 -21.875 3.609375 -23.6875 C -4.253906 -26.875 -6.984375 -32.953125 -4.578125 -41.921875 C -2.304688 -49.660156 2.304688 -55.707031 9.265625 -60.0625 C 16.222656 -64.414062 23.40625 -66.53125 30.8125 -66.40625 C 30.8125 -66.40625 30.875 -66.40625 31 -66.40625 C 32.882812 -66.53125 34.675781 -66.398438 36.375 -66.015625 C 39.226562 -64.972656 41.046875 -63.28125 41.828125 -60.9375 C 42.609375 -58.59375 42.085938 -55.992188 40.265625 -53.140625 C 36.109375 -46.835938 30.453125 -43.328125 23.296875 -42.609375 C 18.554688 -42.148438 13.976562 -42.378906 9.5625 -43.296875 C 8.707031 -43.421875 7.957031 -43.191406 7.3125 -42.609375 C 6.664062 -42.023438 6.273438 -41.3125 6.140625 -40.46875 C 4.835938 -34.875 6.5625 -31.296875 11.3125 -29.734375 C 17.15625 -27.722656 23.234375 -27.722656 29.546875 -29.734375 C 36.828125 -32.015625 43.75 -36.304688 50.3125 -42.609375 C 56.875 -48.910156 60.660156 -51.847656 61.671875 -51.421875 C 62.679688 -51.003906 62.988281 -49.789062 62.59375 -47.78125 C 61.6875 -44.59375 59.347656 -41.144531 55.578125 -37.4375 Z M 14.046875 -53.140625 C 13.648438 -52.679688 13.367188 -52.175781 13.203125 -51.625 C 13.046875 -51.070312 13.257812 -50.566406 13.84375 -50.109375 C 16.125 -48.816406 18.59375 -48.347656 21.25 -48.703125 C 23.914062 -49.054688 26.175781 -50.0625 28.03125 -51.71875 C 29.882812 -53.382812 30.679688 -55.414062 30.421875 -57.8125 C 30.222656 -58.664062 29.765625 -59.203125 29.046875 -59.421875 C 28.335938 -59.648438 27.625 -59.703125 26.90625 -59.578125 C 22.101562 -58.734375 17.816406 -56.585938 14.046875 -53.140625 Z M 14.046875 -53.140625 "/></g></g><g transform="translate(630.017307, 371.051495)"><g><path d="M 47.1875 -46.515625 C 49.332031 -48.660156 51.117188 -49.859375 52.546875 -50.109375 C 53.984375 -50.367188 54.910156 -50.140625 55.328125 -49.421875 C 55.753906 -48.710938 55.476562 -47.742188 54.5 -46.515625 C 48.78125 -39.617188 42.378906 -33.664062 35.296875 -28.65625 C 28.210938 -23.65625 20.914062 -20.765625 13.40625 -19.984375 C 5.894531 -19.203125 1.363281 -23.300781 -0.1875 -32.28125 C -1.363281 -41.175781 4.023438 -59.304688 15.984375 -86.671875 C 27.953125 -114.046875 37.410156 -136.472656 44.359375 -153.953125 C 44.941406 -155.515625 45.820312 -156.878906 47 -158.046875 C 48.5625 -159.609375 50.410156 -159.96875 52.546875 -159.125 C 53.265625 -158.800781 53.976562 -158.28125 54.6875 -157.5625 C 55.40625 -156.851562 55.632812 -155.585938 55.375 -153.765625 C 24.632812 -80.828125 9.75 -41.171875 10.71875 -34.796875 C 11.695312 -28.429688 15.8125 -26.859375 23.0625 -30.078125 C 30.3125 -33.296875 35.898438 -36.578125 39.828125 -39.921875 C 43.765625 -43.273438 46.21875 -45.472656 47.1875 -46.515625 Z M 47.1875 -46.515625 "/></g></g><g transform="translate(678.671355, 371.051495)"><g><path d="M 47.1875 -46.515625 C 49.332031 -48.660156 51.117188 -49.859375 52.546875 -50.109375 C 53.984375 -50.367188 54.910156 -50.140625 55.328125 -49.421875 C 55.753906 -48.710938 55.476562 -47.742188 54.5 -46.515625 C 48.78125 -39.617188 42.378906 -33.664062 35.296875 -28.65625 C 28.210938 -23.65625 20.914062 -20.765625 13.40625 -19.984375 C 5.894531 -19.203125 1.363281 -23.300781 -0.1875 -32.28125 C -1.363281 -41.175781 4.023438 -59.304688 15.984375 -86.671875 C 27.953125 -114.046875 37.410156 -136.472656 44.359375 -153.953125 C 44.941406 -155.515625 45.820312 -156.878906 47 -158.046875 C 48.5625 -159.609375 50.410156 -159.96875 52.546875 -159.125 C 53.265625 -158.800781 53.976562 -158.28125 54.6875 -157.5625 C 55.40625 -156.851562 55.632812 -155.585938 55.375 -153.765625 C 24.632812 -80.828125 9.75 -41.171875 10.71875 -34.796875 C 11.695312 -28.429688 15.8125 -26.859375 23.0625 -30.078125 C 30.3125 -33.296875 35.898438 -36.578125 39.828125 -39.921875 C 43.765625 -43.273438 46.21875 -45.472656 47.1875 -46.515625 Z M 47.1875 -46.515625 "/></g></g><g transform="translate(727.325403, 371.051495)"><g><path d="M 38.75 -41.09375 C 35.28125 -36.96875 31.171875 -33.179688 26.421875 -29.734375 C 21.679688 -26.296875 16.316406 -23.972656 10.328125 -22.765625 C 4.347656 -21.566406 -0.296875 -22.003906 -3.609375 -24.078125 C -6.921875 -26.160156 -7.570312 -30.773438 -5.5625 -37.921875 C -2.957031 -45.335938 0.617188 -52.394531 5.171875 -59.09375 C 6.210938 -60.519531 7.707031 -61.523438 9.65625 -62.109375 C 11.082031 -62.429688 12.332031 -62.1875 13.40625 -61.375 C 14.476562 -60.5625 14.882812 -59.539062 14.625 -58.3125 C 13.644531 -55.96875 12.570312 -53.625 11.40625 -51.28125 C 10.238281 -48.945312 9.457031 -47.421875 9.0625 -46.703125 C 6.789062 -42.546875 5.203125 -38.191406 4.296875 -33.640625 C 4.296875 -31.035156 7.769531 -30.867188 14.71875 -33.140625 C 21.675781 -35.421875 28.4375 -39.597656 35 -45.671875 C 41.570312 -51.753906 44.707031 -53.546875 44.40625 -51.046875 C 44.113281 -48.546875 42.226562 -45.226562 38.75 -41.09375 Z M 21.75 -73.71875 C 21.414062 -73.457031 20.742188 -73.144531 19.734375 -72.78125 C 18.734375 -72.425781 17.664062 -72.164062 16.53125 -72 C 15.394531 -71.84375 14.5 -72.023438 13.84375 -72.546875 C 13.195312 -73.066406 13.164062 -74.101562 13.75 -75.65625 C 14.789062 -78.394531 15.878906 -80.785156 17.015625 -82.828125 C 18.148438 -84.878906 19.628906 -87.140625 21.453125 -89.609375 C 22.617188 -90.710938 23.882812 -91.3125 25.25 -91.40625 C 26.613281 -91.507812 27.75 -91.15625 28.65625 -90.34375 C 29.570312 -89.53125 29.835938 -88.40625 29.453125 -86.96875 C 28.015625 -81.832031 25.445312 -77.414062 21.75 -73.71875 Z M 21.75 -73.71875 "/></g></g><g transform="translate(765.351613, 371.051495)"><g><path d="M 47.1875 -49.4375 C 36.914062 -45.601562 29.507812 -42.484375 24.96875 -40.078125 C 21.644531 -38.453125 19.738281 -37.101562 19.25 -36.03125 C 18.769531 -34.957031 19.144531 -32.988281 20.375 -30.125 C 20.375 -30 20.472656 -29.804688 20.671875 -29.546875 C 22.097656 -26.097656 22.941406 -22.519531 23.203125 -18.8125 C 23.660156 -11.34375 17.304688 -6.113281 4.140625 -3.125 C -9.015625 -0.132812 -17.816406 -0.0351562 -22.265625 -2.828125 C -26.722656 -5.617188 -28.09375 -9.160156 -26.375 -13.453125 C -24.65625 -17.742188 -20.1875 -22.097656 -12.96875 -26.515625 C -5.75 -30.941406 -0.921875 -34.128906 1.515625 -36.078125 C 3.953125 -38.023438 4.679688 -40.203125 3.703125 -42.609375 C 3.378906 -43.453125 3.019531 -44.296875 2.625 -45.140625 C 1.78125 -47.160156 0.90625 -49.242188 0 -51.390625 C -1.6875 -55.285156 -2.414062 -59.117188 -2.1875 -62.890625 C -1.96875 -66.660156 -0.578125 -69.828125 1.984375 -72.390625 C 4.554688 -74.960938 8.539062 -76.347656 13.9375 -76.546875 C 17 -76.671875 19.726562 -76.257812 22.125 -75.3125 C 24.53125 -74.375 26.453125 -72.640625 27.890625 -70.109375 C 29.054688 -68.347656 28.695312 -66.753906 26.8125 -65.328125 C 25.582031 -64.347656 24.25 -64.21875 22.8125 -64.9375 C 21.90625 -65.320312 21.03125 -65.875 20.1875 -66.59375 C 20.1875 -66.789062 20.1875 -66.890625 20.1875 -66.890625 C 19.789062 -67.148438 19.429688 -67.410156 19.109375 -67.671875 C 18.722656 -68.253906 18.300781 -68.707031 17.84375 -69.03125 C 16.15625 -70.269531 14.445312 -70.644531 12.71875 -70.15625 C 11 -69.664062 9.71875 -68.347656 8.875 -66.203125 C 8.289062 -64.515625 8 -62.789062 8 -61.03125 C 8.125 -58.882812 8.609375 -56.804688 9.453125 -54.796875 C 10.035156 -53.554688 10.554688 -52.421875 11.015625 -51.390625 C 12.117188 -48.523438 13.03125 -46.554688 13.75 -45.484375 C 14.46875 -44.410156 15.328125 -43.953125 16.328125 -44.109375 C 17.335938 -44.273438 26.550781 -47.578125 43.96875 -54.015625 C 47.738281 -55.253906 48.8125 -53.726562 47.1875 -49.4375 Z M 4.96875 -12.1875 C 9.519531 -13.75 11.4375 -16.804688 10.71875 -21.359375 C 10.71875 -21.679688 10.65625 -22.035156 10.53125 -22.421875 C 10.269531 -24.890625 9.75 -26.789062 8.96875 -28.125 C 8.1875 -29.457031 6.429688 -29.410156 3.703125 -27.984375 C -3.054688 -24.148438 -9.296875 -19.664062 -15.015625 -14.53125 C -15.398438 -14.070312 -15.757812 -13.648438 -16.09375 -13.265625 C -16.09375 -13.265625 -16.15625 -13.164062 -16.28125 -12.96875 C -16.675781 -12.445312 -16.742188 -11.859375 -16.484375 -11.203125 C -16.222656 -10.554688 -15.632812 -10.234375 -14.71875 -10.234375 C -8.03125 -9.191406 -1.46875 -9.84375 4.96875 -12.1875 Z M 4.96875 -12.1875 "/></g></g></g></svg>