<svg xmlns="http://www.w3.org/2000/svg" xmlns:xlink="http://www.w3.org/1999/xlink" width="1366" zoomAndPan="magnify" viewBox="0 0 1024.5 350.999992" height="768" preserveAspectRatio="xMidYMid meet" version="1.0"><defs><g/></defs><g fill="#f2f4ea" fill-opacity="1"><g transform="translate(20.556373, 218.004238)"><g><path d="M 54.3125 1.796875 C 45.957031 1.796875 38.164062 0.800781 30.9375 -1.1875 C 23.707031 -3.175781 16.445312 -6.160156 9.15625 -10.140625 C 10.738281 -18.367188 11.53125 -28.78125 11.53125 -41.375 C 16.175781 -42.695312 22.28125 -43.359375 29.84375 -43.359375 C 30.5 -31.691406 32.648438 -23.46875 36.296875 -18.6875 C 39.953125 -13.914062 46.15625 -11.53125 54.90625 -11.53125 C 62.332031 -11.53125 67.832031 -13.085938 71.40625 -16.203125 C 74.988281 -19.328125 76.78125 -23.273438 76.78125 -28.046875 C 76.78125 -31.765625 75.6875 -34.984375 73.5 -37.703125 C 71.3125 -40.421875 68.523438 -42.738281 65.140625 -44.65625 C 61.765625 -46.582031 57.09375 -48.9375 51.125 -51.71875 C 42.769531 -55.5625 35.972656 -59.175781 30.734375 -62.5625 C 25.492188 -65.945312 21.015625 -70.488281 17.296875 -76.1875 C 13.585938 -81.882812 11.734375 -88.976562 11.734375 -97.46875 C 11.734375 -110.195312 15.84375 -119.84375 24.0625 -126.40625 C 32.289062 -132.976562 43.101562 -136.265625 56.5 -136.265625 C 63.65625 -136.265625 70.78125 -135.398438 77.875 -133.671875 C 84.96875 -131.953125 90.375 -129.898438 94.09375 -127.515625 C 94.09375 -114.910156 94.554688 -105.425781 95.484375 -99.0625 C 93.359375 -98 90.671875 -97.203125 87.421875 -96.671875 C 84.171875 -96.140625 80.957031 -95.875 77.78125 -95.875 C 75.925781 -106.351562 73.171875 -113.582031 69.515625 -117.5625 C 65.867188 -121.539062 61 -123.53125 54.90625 -123.53125 C 49.332031 -123.53125 44.890625 -122.234375 41.578125 -119.640625 C 38.265625 -117.054688 36.609375 -113.3125 36.609375 -108.40625 C 36.609375 -104.425781 37.832031 -100.945312 40.28125 -97.96875 C 42.738281 -94.988281 45.789062 -92.4375 49.4375 -90.3125 C 53.082031 -88.1875 58.085938 -85.664062 64.453125 -82.75 C 72.941406 -78.769531 79.835938 -75.125 85.140625 -71.8125 C 90.441406 -68.5 94.945312 -64.054688 98.65625 -58.484375 C 102.375 -52.910156 104.234375 -46.082031 104.234375 -38 C 104.234375 -26.0625 99.957031 -16.441406 91.40625 -9.140625 C 82.851562 -1.847656 70.488281 1.796875 54.3125 1.796875 Z M 54.3125 1.796875 "/></g></g></g><g fill="#f2f4ea" fill-opacity="1"><g transform="translate(131.754086, 218.004238)"><g><path d="M 104.03125 -38.390625 C 111.332031 -37.328125 116.375 -35.40625 119.15625 -32.625 C 116.5 -24.53125 114.441406 -13.523438 112.984375 0.390625 C 99.722656 0.128906 83.8125 0 65.25 0 C 46.019531 0 27.054688 0.195312 8.359375 0.59375 C 8.359375 -4.707031 8.753906 -8.816406 9.546875 -11.734375 C 13.265625 -12.003906 16.082031 -12.703125 18 -13.828125 C 19.925781 -14.953125 21.253906 -16.9375 21.984375 -19.78125 C 22.710938 -22.632812 23.078125 -26.984375 23.078125 -32.828125 L 23.078125 -102.84375 C 23.078125 -108.28125 22.710938 -112.289062 21.984375 -114.875 C 21.253906 -117.457031 19.957031 -119.3125 18.09375 -120.4375 C 16.238281 -121.570312 13.390625 -122.335938 9.546875 -122.734375 C 8.753906 -125.253906 8.359375 -129.363281 8.359375 -135.0625 C 18.703125 -134.664062 33.617188 -134.46875 53.109375 -134.46875 C 80.160156 -134.46875 98.394531 -134.664062 107.8125 -135.0625 C 108.082031 -129.5 108.582031 -123.53125 109.3125 -117.15625 C 110.039062 -110.789062 110.9375 -105.554688 112 -101.453125 C 108.019531 -99.460938 102.976562 -98.46875 96.875 -98.46875 C 95.675781 -106.15625 92.957031 -112.117188 88.71875 -116.359375 C 84.476562 -120.609375 77.25 -122.734375 67.03125 -122.734375 L 53.3125 -122.734375 L 53.3125 -73.40625 L 59.078125 -73.40625 C 66.242188 -73.40625 71.117188 -74.429688 73.703125 -76.484375 C 76.285156 -78.535156 77.644531 -82.484375 77.78125 -88.328125 C 81.757812 -89.648438 86.46875 -90.3125 91.90625 -90.3125 C 91.375 -81.5625 91.109375 -74.003906 91.109375 -67.640625 C 91.109375 -60.335938 91.375 -52.578125 91.90625 -44.359375 C 85.800781 -44.359375 81.222656 -44.890625 78.171875 -45.953125 C 77.640625 -51.921875 76.046875 -55.960938 73.390625 -58.078125 C 70.742188 -60.203125 65.972656 -61.265625 59.078125 -61.265625 L 53.3125 -61.265625 L 53.3125 -33.421875 C 53.3125 -27.710938 53.804688 -23.363281 54.796875 -20.375 C 55.796875 -17.394531 57.453125 -15.304688 59.765625 -14.109375 C 62.085938 -12.921875 65.503906 -12.328125 70.015625 -12.328125 L 72.40625 -12.328125 C 79.039062 -12.328125 84.34375 -13.222656 88.3125 -15.015625 C 92.289062 -16.804688 95.40625 -19.523438 97.65625 -23.171875 C 99.914062 -26.816406 102.039062 -31.890625 104.03125 -38.390625 Z M 104.03125 -38.390625 "/></g></g></g><g fill="#f2f4ea" fill-opacity="1"><g transform="translate(256.279608, 218.004238)"><g><path d="M 115.765625 -28.25 C 119.347656 -22.007812 122.363281 -17.894531 124.8125 -15.90625 C 127.269531 -13.925781 131.148438 -12.734375 136.453125 -12.328125 C 136.453125 -7.691406 135.925781 -3.582031 134.875 0 C 116.695312 0 103.832031 0.597656 96.28125 1.796875 C 92.5625 -5.097656 88.710938 -13.191406 84.734375 -22.484375 L 82.546875 -27.453125 C 79.503906 -34.347656 76.65625 -39.816406 74 -43.859375 C 71.34375 -47.898438 67.894531 -51.910156 63.65625 -55.890625 L 58.484375 -55.703125 L 53.3125 -55.890625 L 53.3125 -33.015625 C 53.3125 -27.046875 53.640625 -22.601562 54.296875 -19.6875 C 54.960938 -16.769531 56.09375 -14.78125 57.6875 -13.71875 C 59.28125 -12.664062 61.601562 -12.003906 64.65625 -11.734375 C 65.445312 -9.609375 65.84375 -5.5 65.84375 0.59375 C 57.882812 0.195312 47.9375 0 36 0 C 25.125 0 15.910156 0.195312 8.359375 0.59375 C 8.359375 -4.445312 8.753906 -8.554688 9.546875 -11.734375 C 13.265625 -12.003906 16.050781 -12.703125 17.90625 -13.828125 C 19.757812 -14.953125 21.082031 -16.875 21.875 -19.59375 C 22.675781 -22.3125 23.078125 -26.390625 23.078125 -31.828125 L 23.078125 -103.046875 C 23.078125 -108.484375 22.710938 -112.523438 21.984375 -115.171875 C 21.253906 -117.828125 19.957031 -119.6875 18.09375 -120.75 C 16.238281 -121.8125 13.390625 -122.539062 9.546875 -122.9375 C 8.753906 -125.582031 8.359375 -129.625 8.359375 -135.0625 C 20.691406 -134.664062 30.503906 -134.46875 37.796875 -134.46875 C 40.179688 -134.46875 45.085938 -134.601562 52.515625 -134.875 C 61.796875 -135.132812 69.488281 -135.265625 75.59375 -135.265625 C 90.976562 -135.265625 102.613281 -131.945312 110.5 -125.3125 C 118.394531 -118.6875 122.34375 -110.132812 122.34375 -99.65625 C 122.34375 -89.3125 119.554688 -80.789062 113.984375 -74.09375 C 108.410156 -67.394531 100.914062 -62.851562 91.5 -60.46875 C 96.28125 -57.414062 100.160156 -53.867188 103.140625 -49.828125 C 106.117188 -45.785156 110.328125 -38.59375 115.765625 -28.25 Z M 60.671875 -68.234375 C 69.160156 -68.234375 76.253906 -70.617188 81.953125 -75.390625 C 87.660156 -80.160156 90.515625 -87.054688 90.515625 -96.078125 C 90.515625 -104.566406 88.320312 -111.164062 83.9375 -115.875 C 79.5625 -120.582031 73.132812 -122.9375 64.65625 -122.9375 C 60.40625 -122.9375 56.625 -122.40625 53.3125 -121.34375 L 53.3125 -69.03125 C 56.09375 -68.5 58.546875 -68.234375 60.671875 -68.234375 Z M 60.671875 -68.234375 "/></g></g></g><g fill="#f2f4ea" fill-opacity="1"><g transform="translate(396.122195, 218.004238)"><g><path d="M 115.578125 -134.46875 C 124.054688 -134.46875 130.6875 -134.664062 135.46875 -135.0625 C 135.46875 -130.6875 134.9375 -126.578125 133.875 -122.734375 C 130.289062 -121.941406 127.335938 -119.984375 125.015625 -116.859375 C 122.703125 -113.742188 120.085938 -108.472656 117.171875 -101.046875 C 106.160156 -72.535156 92.429688 -38.785156 75.984375 0.203125 C 73.203125 1.128906 68.695312 1.59375 62.46875 1.59375 C 47.613281 -38.1875 34.019531 -71.804688 21.6875 -99.265625 C 18.632812 -106.160156 16.3125 -111.066406 14.71875 -113.984375 C 13.125 -116.898438 11.597656 -118.988281 10.140625 -120.25 C 8.679688 -121.507812 6.828125 -122.335938 4.578125 -122.734375 C 3.515625 -125.921875 3.113281 -130.03125 3.375 -135.0625 C 9.34375 -134.664062 18.894531 -134.46875 32.03125 -134.46875 C 44.757812 -134.46875 54.570312 -134.664062 61.46875 -135.0625 C 61.46875 -130.820312 61.066406 -126.710938 60.265625 -122.734375 C 56.554688 -122.335938 53.90625 -121.640625 52.3125 -120.640625 C 50.71875 -119.648438 49.921875 -118.023438 49.921875 -115.765625 C 49.921875 -112.984375 51.316406 -108.410156 54.109375 -102.046875 C 64.054688 -77.773438 72.078125 -56.160156 78.171875 -37.203125 C 87.984375 -59.878906 96.671875 -81.957031 104.234375 -103.4375 C 105.554688 -107.414062 106.21875 -110.53125 106.21875 -112.78125 C 106.21875 -118.488281 103.035156 -121.804688 96.671875 -122.734375 C 95.742188 -125.921875 95.347656 -130.03125 95.484375 -135.0625 C 100.390625 -134.664062 107.085938 -134.46875 115.578125 -134.46875 Z M 115.578125 -134.46875 "/></g></g></g><g fill="#f2f4ea" fill-opacity="1"><g transform="translate(534.970138, 218.004238)"><g><path d="M 23.078125 -102.84375 C 23.078125 -108.28125 22.710938 -112.289062 21.984375 -114.875 C 21.253906 -117.457031 19.992188 -119.3125 18.203125 -120.4375 C 16.410156 -121.570312 13.59375 -122.335938 9.75 -122.734375 C 8.820312 -125.648438 8.359375 -129.757812 8.359375 -135.0625 C 15.117188 -134.664062 25.265625 -134.46875 38.796875 -134.46875 C 50.328125 -134.46875 60.070312 -134.664062 68.03125 -135.0625 C 68.03125 -132.8125 67.960938 -130.625 67.828125 -128.5 C 67.703125 -126.382812 67.304688 -124.460938 66.640625 -122.734375 C 62.921875 -122.335938 60.132812 -121.609375 58.28125 -120.546875 C 56.425781 -119.484375 55.132812 -117.625 54.40625 -114.96875 C 53.675781 -112.320312 53.3125 -108.28125 53.3125 -102.84375 L 53.3125 -31.828125 C 53.3125 -26.390625 53.707031 -22.3125 54.5 -19.59375 C 55.300781 -16.875 56.628906 -14.953125 58.484375 -13.828125 C 60.335938 -12.703125 63.125 -12.003906 66.84375 -11.734375 C 67.632812 -8.953125 68.03125 -4.84375 68.03125 0.59375 C 61.269531 0.195312 51.851562 0 39.78125 0 C 27.050781 0 16.578125 0.195312 8.359375 0.59375 C 8.359375 -4.175781 8.820312 -8.285156 9.75 -11.734375 C 13.457031 -12.003906 16.238281 -12.703125 18.09375 -13.828125 C 19.957031 -14.953125 21.253906 -16.875 21.984375 -19.59375 C 22.710938 -22.3125 23.078125 -26.390625 23.078125 -31.828125 Z M 23.078125 -102.84375 "/></g></g></g><g fill="#f2f4ea" fill-opacity="1"><g transform="translate(611.356408, 218.004238)"><g><path d="M 73 1.796875 C 60.132812 1.796875 48.695312 -1.148438 38.6875 -7.046875 C 28.675781 -12.953125 20.882812 -21.175781 15.3125 -31.71875 C 9.75 -42.269531 6.96875 -54.375 6.96875 -68.03125 C 6.96875 -82.488281 10.082031 -94.851562 16.3125 -105.125 C 22.539062 -115.40625 30.796875 -123.164062 41.078125 -128.40625 C 51.359375 -133.644531 62.53125 -136.265625 74.59375 -136.265625 C 89.3125 -136.265625 103.898438 -132.816406 118.359375 -125.921875 C 116.898438 -117.566406 116.171875 -107.285156 116.171875 -95.078125 C 113.117188 -93.492188 107.945312 -92.703125 100.65625 -92.703125 C 100.382812 -104.109375 98.128906 -112.195312 93.890625 -116.96875 C 89.648438 -121.738281 83.550781 -124.125 75.59375 -124.125 C 63.125 -124.125 53.90625 -119.28125 47.9375 -109.59375 C 41.96875 -99.914062 38.984375 -87.785156 38.984375 -73.203125 C 38.984375 -55.703125 42.796875 -41.445312 50.421875 -30.4375 C 58.046875 -19.425781 69.019531 -13.921875 83.34375 -13.921875 C 88.65625 -13.921875 94.160156 -14.78125 99.859375 -16.5 C 105.554688 -18.226562 111.125 -20.6875 116.5625 -23.875 C 117.625 -22.945312 118.585938 -21.648438 119.453125 -19.984375 C 120.316406 -18.328125 120.878906 -16.707031 121.140625 -15.125 C 114.515625 -9.6875 107.320312 -5.503906 99.5625 -2.578125 C 91.800781 0.335938 82.945312 1.796875 73 1.796875 Z M 73 1.796875 "/></g></g></g><g fill="#f2f4ea" fill-opacity="1"><g transform="translate(739.064706, 218.004238)"><g><path d="M 104.03125 -38.390625 C 111.332031 -37.328125 116.375 -35.40625 119.15625 -32.625 C 116.5 -24.53125 114.441406 -13.523438 112.984375 0.390625 C 99.722656 0.128906 83.8125 0 65.25 0 C 46.019531 0 27.054688 0.195312 8.359375 0.59375 C 8.359375 -4.707031 8.753906 -8.816406 9.546875 -11.734375 C 13.265625 -12.003906 16.082031 -12.703125 18 -13.828125 C 19.925781 -14.953125 21.253906 -16.9375 21.984375 -19.78125 C 22.710938 -22.632812 23.078125 -26.984375 23.078125 -32.828125 L 23.078125 -102.84375 C 23.078125 -108.28125 22.710938 -112.289062 21.984375 -114.875 C 21.253906 -117.457031 19.957031 -119.3125 18.09375 -120.4375 C 16.238281 -121.570312 13.390625 -122.335938 9.546875 -122.734375 C 8.753906 -125.253906 8.359375 -129.363281 8.359375 -135.0625 C 18.703125 -134.664062 33.617188 -134.46875 53.109375 -134.46875 C 80.160156 -134.46875 98.394531 -134.664062 107.8125 -135.0625 C 108.082031 -129.5 108.582031 -123.53125 109.3125 -117.15625 C 110.039062 -110.789062 110.9375 -105.554688 112 -101.453125 C 108.019531 -99.460938 102.976562 -98.46875 96.875 -98.46875 C 95.675781 -106.15625 92.957031 -112.117188 88.71875 -116.359375 C 84.476562 -120.609375 77.25 -122.734375 67.03125 -122.734375 L 53.3125 -122.734375 L 53.3125 -73.40625 L 59.078125 -73.40625 C 66.242188 -73.40625 71.117188 -74.429688 73.703125 -76.484375 C 76.285156 -78.535156 77.644531 -82.484375 77.78125 -88.328125 C 81.757812 -89.648438 86.46875 -90.3125 91.90625 -90.3125 C 91.375 -81.5625 91.109375 -74.003906 91.109375 -67.640625 C 91.109375 -60.335938 91.375 -52.578125 91.90625 -44.359375 C 85.800781 -44.359375 81.222656 -44.890625 78.171875 -45.953125 C 77.640625 -51.921875 76.046875 -55.960938 73.390625 -58.078125 C 70.742188 -60.203125 65.972656 -61.265625 59.078125 -61.265625 L 53.3125 -61.265625 L 53.3125 -33.421875 C 53.3125 -27.710938 53.804688 -23.363281 54.796875 -20.375 C 55.796875 -17.394531 57.453125 -15.304688 59.765625 -14.109375 C 62.085938 -12.921875 65.503906 -12.328125 70.015625 -12.328125 L 72.40625 -12.328125 C 79.039062 -12.328125 84.34375 -13.222656 88.3125 -15.015625 C 92.289062 -16.804688 95.40625 -19.523438 97.65625 -23.171875 C 99.914062 -26.816406 102.039062 -31.890625 104.03125 -38.390625 Z M 104.03125 -38.390625 "/></g></g></g><g fill="#f2f4ea" fill-opacity="1"><g transform="translate(863.590215, 218.004238)"><g><path d="M 115.765625 -28.25 C 119.347656 -22.007812 122.363281 -17.894531 124.8125 -15.90625 C 127.269531 -13.925781 131.148438 -12.734375 136.453125 -12.328125 C 136.453125 -7.691406 135.925781 -3.582031 134.875 0 C 116.695312 0 103.832031 0.597656 96.28125 1.796875 C 92.5625 -5.097656 88.710938 -13.191406 84.734375 -22.484375 L 82.546875 -27.453125 C 79.503906 -34.347656 76.65625 -39.816406 74 -43.859375 C 71.34375 -47.898438 67.894531 -51.910156 63.65625 -55.890625 L 58.484375 -55.703125 L 53.3125 -55.890625 L 53.3125 -33.015625 C 53.3125 -27.046875 53.640625 -22.601562 54.296875 -19.6875 C 54.960938 -16.769531 56.09375 -14.78125 57.6875 -13.71875 C 59.28125 -12.664062 61.601562 -12.003906 64.65625 -11.734375 C 65.445312 -9.609375 65.84375 -5.5 65.84375 0.59375 C 57.882812 0.195312 47.9375 0 36 0 C 25.125 0 15.910156 0.195312 8.359375 0.59375 C 8.359375 -4.445312 8.753906 -8.554688 9.546875 -11.734375 C 13.265625 -12.003906 16.050781 -12.703125 17.90625 -13.828125 C 19.757812 -14.953125 21.082031 -16.875 21.875 -19.59375 C 22.675781 -22.3125 23.078125 -26.390625 23.078125 -31.828125 L 23.078125 -103.046875 C 23.078125 -108.484375 22.710938 -112.523438 21.984375 -115.171875 C 21.253906 -117.828125 19.957031 -119.6875 18.09375 -120.75 C 16.238281 -121.8125 13.390625 -122.539062 9.546875 -122.9375 C 8.753906 -125.582031 8.359375 -129.625 8.359375 -135.0625 C 20.691406 -134.664062 30.503906 -134.46875 37.796875 -134.46875 C 40.179688 -134.46875 45.085938 -134.601562 52.515625 -134.875 C 61.796875 -135.132812 69.488281 -135.265625 75.59375 -135.265625 C 90.976562 -135.265625 102.613281 -131.945312 110.5 -125.3125 C 118.394531 -118.6875 122.34375 -110.132812 122.34375 -99.65625 C 122.34375 -89.3125 119.554688 -80.789062 113.984375 -74.09375 C 108.410156 -67.394531 100.914062 -62.851562 91.5 -60.46875 C 96.28125 -57.414062 100.160156 -53.867188 103.140625 -49.828125 C 106.117188 -45.785156 110.328125 -38.59375 115.765625 -28.25 Z M 60.671875 -68.234375 C 69.160156 -68.234375 76.253906 -70.617188 81.953125 -75.390625 C 87.660156 -80.160156 90.515625 -87.054688 90.515625 -96.078125 C 90.515625 -104.566406 88.320312 -111.164062 83.9375 -115.875 C 79.5625 -120.582031 73.132812 -122.9375 64.65625 -122.9375 C 60.40625 -122.9375 56.625 -122.40625 53.3125 -121.34375 L 53.3125 -69.03125 C 56.09375 -68.5 58.546875 -68.234375 60.671875 -68.234375 Z M 60.671875 -68.234375 "/></g></g></g></svg>